# Blender v2.80 (sub 75) OBJ File: '220406_Objects000.blend'
# www.blender.org
mtllib Pillow.mtl
o Pillow101.001_Cube.616
v -0.172444 -0.055627 -0.077175
v -0.149662 -0.179194 -0.063449
v -0.185247 -0.202213 -0.033488
v -0.230413 -0.180979 0.004539
v -0.177656 -0.197498 0.051812
v -0.084074 -0.115452 0.086394
v -0.058654 0.127501 -0.083366
v -0.170755 0.208928 -0.020474
v -0.149952 0.177194 0.068204
v -0.186699 0.199758 0.039395
v -0.229090 0.180282 0.014080
v 0.053378 -0.129468 -0.084818
v 0.210328 -0.124739 -0.068748
v 0.235758 -0.151811 -0.043128
v 0.173170 -0.053848 0.076813
v 0.152025 -0.177611 0.062269
v 0.229404 -0.180345 0.005639
v 0.151232 0.046892 -0.085685
v 0.177235 0.196651 -0.055151
v 0.056236 0.116922 0.085547
v 0.223762 0.134924 0.055646
v 0.240029 0.151886 0.029276
v -0.241555 0.138846 -0.037224
v -0.245155 -0.098669 0.041538
v -0.257022 0.082316 0.008566
v -0.056898 0.204172 -0.050794
v 0.252773 0.090273 -0.022957
v 0.208479 0.199743 0.010537
v 0.239097 0.047675 -0.055494
v 0.259932 -0.053490 0.011260
v 0.055234 -0.203837 -0.053883
v 0.167036 -0.207116 0.033604
v -0.071045 -0.223257 0.005024
v -0.254194 -0.091924 -0.007948
v 0.007887 0.222329 0.011045
v -0.226806 -0.162114 -0.047613
v -0.212865 -0.173955 0.057307
v -0.218834 0.167871 -0.052373
v -0.227313 0.159034 0.054849
v 0.196078 -0.194237 -0.048865
v 0.228925 -0.159359 0.046579
v 0.219871 0.175409 -0.049101
v 0.199958 0.188199 0.046611
v -0.204054 0.073837 0.075466
v 0.097872 0.202937 0.051034
vt 0.510233 0.908187
vt 0.460306 0.961578
vt 0.450775 0.894830
vt 0.453154 0.766388
vt 0.544851 0.517801
vt 0.518234 0.660444
vt 0.460858 0.558901
vt 0.433589 0.726495
vt 0.418209 0.589352
vt 0.837882 0.588293
vt 0.801658 0.701685
vt 0.712546 0.562620
vt 0.486886 0.054878
vt 0.460976 0.211724
vt 0.450775 0.042613
vt 0.539677 0.278314
vt 0.517186 0.380140
vt 0.469092 0.287882
vt 0.549225 0.438448
vt 0.516096 0.488280
vt 0.460550 0.470128
vt 0.450775 0.396424
vt 0.165557 0.736368
vt 0.144729 0.711698
vt 0.180501 0.723443
vt 0.611510 0.966917
vt 0.569315 0.978805
vt 0.558343 0.964717
vt 0.223602 0.552501
vt 0.151089 0.532411
vt 0.224169 0.512398
vt 0.166682 0.511988
vt 0.834411 0.513642
vt 0.855269 0.538282
vt 0.819499 0.526557
vt 0.364626 0.723324
vt 0.342716 0.733664
vt 0.355147 0.722064
vt 0.288270 0.704067
vt 0.277118 0.738318
vt 0.673216 0.737881
vt 0.641982 0.724650
vt 0.675604 0.728023
vt 0.337938 0.584289
vt 0.356408 0.522730
vt 0.364652 0.532737
vt 0.636134 0.526821
vt 0.654143 0.518685
vt 0.644853 0.527936
vt 0.702989 0.511929
vt 0.167306 0.655819
vt 0.137225 0.547604
vt 0.495658 0.984261
vt 0.535022 0.996010
vt 0.488456 0.999591
vt 0.874027 0.703690
vt 0.450775 0.250000
vt 0.515372 0.243799
vt 0.509263 0.174789
vt 0.333297 0.515524
vt 0.451000 0.503093
vt 0.549507 0.475090
vt 0.391746 0.703663
vt 0.631954 0.668208
vt 0.568901 0.728890
vt 0.604445 0.543135
vt 0.516343 0.746965
vt 0.830253 0.738142
vt 0.639758 0.673553
vt 0.537096 0.788736
vt 0.538176 0.053555
vt 0.549225 0.213775
vt 0.145213 0.729787
vt 0.854787 0.520213
vt 0.644531 0.732950
vt 0.375000 0.532737
vt 0.644531 0.517051
vt 0.450775 0.994285
vt 0.861955 0.717886
vt 0.769648 0.501925
vt 0.344061 0.588483
vt 0.829755 0.749977
vn -0.0391 -0.9211 -0.3874
vn 0.0730 -0.9831 -0.1677
vn 0.9863 0.0831 0.1426
vn 0.9365 -0.0373 -0.3488
vn -0.0436 0.0300 0.9986
vn -0.8409 -0.0225 -0.5407
vn -0.0962 0.9874 0.1256
vn 0.1096 0.9686 0.2230
vn 0.0249 0.9518 -0.3056
vn -0.0275 0.9666 -0.2550
vn -0.2842 -0.5669 -0.7732
vn -0.0674 -0.3213 0.9446
vn -0.0788 0.3913 -0.9169
vn -0.1529 0.7117 -0.6856
vn -0.2672 0.5632 0.7819
vn 0.4716 -0.3306 -0.8175
vn 0.0589 -0.3821 -0.9222
vn 0.2932 -0.5853 0.7560
vn 0.3227 0.0957 -0.9416
vn 0.6437 0.3984 0.6534
vn 0.0888 0.3336 0.9385
vn -0.4759 -0.0012 -0.8795
vn -0.5560 0.0014 -0.8312
vn -0.1716 0.0734 -0.9824
vn -0.2042 -0.9763 0.0721
vn -0.5040 -0.8183 0.2765
vn -0.9610 -0.2365 0.1433
vn -0.6512 0.0059 0.7589
vn -0.5368 0.8106 -0.2342
vn -0.9618 0.2735 0.0128
vn -0.0046 0.3911 -0.9203
vn 0.0618 0.1891 -0.9800
vn -0.0548 0.0985 0.9936
vn -0.0349 0.7647 0.6434
vn 0.8436 0.5339 -0.0567
vn 0.4599 0.8494 -0.2587
vn 0.1488 0.9311 0.3331
vn 0.1035 -0.0623 -0.9927
vn 0.4475 -0.0197 0.8940
vn 0.1686 0.0651 0.9835
vn 0.7612 -0.0066 0.6484
vn 0.9723 -0.2335 -0.0100
vn -0.0739 -0.1235 -0.9896
vn -0.0604 -0.7556 -0.6523
vn 0.0188 -0.6918 0.7219
vn 0.0675 -0.1278 0.9895
vn -0.0107 0.0010 -0.9999
vn 0.0821 -0.9887 -0.1255
vn 0.9372 -0.0359 -0.3469
vn 0.0425 -0.0220 0.9989
vn -0.9840 -0.0326 0.1753
vn -0.8658 0.0342 0.4992
vn -0.9522 0.0135 -0.3050
vn 0.1111 0.9888 -0.0994
vn -0.2304 -0.1493 -0.9616
vn -0.6045 -0.7348 -0.3076
vn -0.8888 -0.3106 0.3369
vn -0.2075 0.1762 0.9622
vn -0.5688 0.7189 0.3995
vn 0.1061 -0.2936 -0.9500
vn 0.2322 -0.1526 0.9606
vn 0.5067 -0.7648 0.3980
vn 0.2159 0.1589 -0.9634
vn 0.8247 0.1514 -0.5449
vn 0.1472 0.2289 0.9623
vn 0.7071 0.6077 0.3615
vn -0.3653 -0.9271 0.0838
vn -0.9468 -0.2760 -0.1653
vn -0.1917 -0.0649 0.9793
vn -0.5195 -0.0441 0.8533
vn -0.4292 0.9029 0.0240
vn -0.8208 0.5252 -0.2248
vn -0.9490 0.2606 0.1772
vn 0.0271 0.3609 0.9322
vn -0.0298 0.8715 0.4896
vn 0.9370 0.3174 -0.1458
vn 0.3248 0.0185 -0.9456
vn 0.6779 -0.0568 -0.7329
vn 0.8407 0.0341 0.5405
vn 0.3924 -0.9198 -0.0055
vn 0.7200 -0.6358 -0.2782
vn 0.9623 -0.2375 0.1330
vn -0.0031 -0.3841 -0.9233
vn -0.0062 -0.3823 0.9240
vn 0.0012 -0.8749 0.4843
vn -0.0373 -0.0106 -0.9992
usemtl Pillow1_1
s off
f 33/1/1 3/2/1 31/3/1
f 40/4/2 33/1/2 31/3/2
f 22/5/3 30/6/3 27/7/3
f 30/6/4 14/8/4 29/9/4
f 44/10/5 6/11/5 20/12/5
f 34/13/6 23/14/6 36/15/6
f 10/16/7 35/17/7 8/18/7
f 35/17/8 45/19/8 28/20/8
f 35/17/9 19/21/9 26/22/9
f 8/18/10 35/17/10 26/22/10
f 3/23/11 36/24/11 2/25/11
f 6/26/12 37/27/12 5/28/12
f 7/29/13 38/30/13 26/31/13
f 26/31/14 38/30/14 8/32/14
f 10/33/15 39/34/15 9/35/15
f 14/36/16 40/37/16 13/38/16
f 12/39/17 40/37/17 31/40/17
f 32/41/18 41/42/18 16/43/18
f 18/44/19 42/45/19 29/46/19
f 22/47/20 43/48/20 21/49/20
f 20/12/21 43/48/21 45/50/21
f 1/51/22 36/24/22 38/30/22
f 38/30/23 36/24/23 23/52/23
f 1/51/24 38/30/24 7/29/24
f 33/1/25 5/28/25 3/2/25
f 5/28/26 37/27/26 4/53/26
f 4/53/27 24/54/27 34/55/27
f 44/10/28 39/34/28 24/56/28
f 8/18/29 38/57/29 11/58/29
f 11/58/30 23/14/30 25/59/30
f 7/29/31 26/31/31 19/60/31
f 7/29/32 19/60/32 18/44/32
f 20/12/33 9/35/33 44/10/33
f 9/35/34 45/50/34 10/33/34
f 42/61/35 28/20/35 22/5/35
f 42/61/36 19/21/36 28/20/36
f 43/62/37 28/20/37 45/19/37
f 18/44/38 13/63/38 12/39/38
f 15/64/39 41/65/39 21/66/39
f 15/64/40 21/66/40 20/12/40
f 41/65/41 30/6/41 21/66/41
f 17/67/42 14/8/42 30/6/42
f 12/39/43 2/25/43 1/51/43
f 2/25/44 31/40/44 3/23/44
f 5/68/45 32/41/45 16/43/45
f 6/11/46 16/43/46 15/69/46
f 7/29/47 18/44/47 12/39/47
f 40/4/48 32/70/48 33/1/48
f 29/9/49 27/7/49 30/6/49
f 20/12/50 6/11/50 15/69/50
f 34/13/51 24/71/51 25/59/51
f 24/71/52 39/72/52 25/59/52
f 23/14/53 34/13/53 25/59/53
f 35/17/54 28/20/54 19/21/54
f 1/51/55 2/25/55 36/24/55
f 3/23/56 4/73/56 36/24/56
f 24/54/57 4/53/57 37/27/57
f 44/10/58 9/35/58 39/34/58
f 10/33/59 11/74/59 39/34/59
f 12/39/60 13/38/60 40/37/60
f 15/69/61 16/43/61 41/42/61
f 32/41/62 17/75/62 41/42/62
f 18/44/63 19/60/63 42/45/63
f 27/76/64 29/46/64 42/45/64
f 20/12/65 21/49/65 43/48/65
f 28/77/66 43/48/66 22/47/66
f 3/2/67 5/28/67 4/53/67
f 36/78/68 4/53/68 34/55/68
f 6/11/69 44/10/69 37/79/69
f 44/10/70 24/56/70 37/79/70
f 10/16/71 8/18/71 11/58/71
f 11/58/72 38/57/72 23/14/72
f 39/72/73 11/58/73 25/59/73
f 9/35/74 20/12/74 45/50/74
f 10/33/75 45/50/75 35/80/75
f 27/7/76 42/61/76 22/5/76
f 13/63/77 18/81/77 29/9/77
f 13/63/78 29/9/78 14/8/78
f 22/5/79 21/66/79 30/6/79
f 32/70/80 40/4/80 17/67/80
f 17/67/81 40/4/81 14/8/81
f 41/65/82 17/67/82 30/6/82
f 2/25/83 12/39/83 31/40/83
f 16/43/84 6/11/84 5/68/84
f 5/68/85 33/82/85 32/41/85
f 7/29/86 12/39/86 1/51/86
